<?xml version="1.0" standalone="no"?>
<!DOCTYPE svg PUBLIC "-//W3C//DTD SVG 20010904//EN"
 "http://www.w3.org/TR/2001/REC-SVG-20010904/DTD/svg10.dtd">
<svg version="1.0" xmlns="http://www.w3.org/2000/svg"
 width="919.000000pt" height="611.000000pt" viewBox="0 0 919.000000 611.000000"
 preserveAspectRatio="xMidYMid meet">
<metadata>
Created by potrace 1.16, written by Peter Selinger 2001-2019
</metadata>
<g transform="translate(0.000000,611.000000) scale(0.100000,-0.100000)"
fill="#000000" stroke="none">
<path d="M0 3055 l0 -3055 4595 0 4595 0 0 2555 c0 2104 -2 2555 -13 2555 -29
0 -244 -201 -383 -358 -38 -43 -51 -72 -33 -72 5 0 9 -4 9 -9 0 -5 -9 -7 -20
-4 -13 3 -22 -1 -26 -12 -4 -9 -16 -27 -28 -38 -12 -12 -31 -35 -44 -51 -21
-28 -24 -28 -75 -20 -149 23 -212 8 -323 -77 -28 -21 -56 -39 -61 -39 -11 0
-121 -78 -161 -114 -76 -69 -186 -190 -257 -284 -11 -15 -47 -61 -80 -102 -34
-41 -81 -102 -107 -135 -115 -149 -265 -275 -329 -275 -11 0 -29 -5 -39 -10
-13 -7 -21 -7 -25 1 -10 15 -156 9 -173 -8 -10 -10 -32 -12 -81 -8 -36 2 -105
6 -153 7 -49 0 -88 5 -88 10 0 4 -22 8 -50 8 -27 0 -50 -4 -50 -10 0 -10 -61
-7 -80 5 -7 4 -29 8 -49 9 -23 1 -35 6 -34 14 2 6 -2 12 -7 12 -6 0 -10 -5
-10 -11 0 -12 -151 -10 -186 2 -12 4 -25 5 -28 1 -14 -13 -101 -1 -114 16 -14
19 -57 24 -84 10 -11 -5 -26 -5 -38 2 -11 6 -54 12 -96 15 -42 2 -79 7 -82 10
-3 3 2 5 12 5 9 0 14 5 11 10 -3 6 -17 7 -31 4 -14 -4 -24 -2 -24 5 0 6 -4 11
-10 11 -5 0 -10 -8 -10 -17 0 -13 -3 -14 -11 -6 -8 8 -30 10 -62 6 -44 -5 -50
-4 -44 10 8 22 -9 22 -21 1 -6 -11 -11 -13 -16 -5 -4 6 -4 11 1 11 4 0 -5 7
-21 15 -15 8 -35 15 -42 15 -8 0 -14 5 -14 11 0 6 -5 7 -12 2 -17 -11 -58 -11
-58 0 0 4 -10 5 -21 2 -13 -4 -19 -3 -15 3 3 5 -12 12 -34 16 -22 3 -40 11
-40 16 0 6 -7 10 -15 10 -8 0 -15 -4 -15 -10 0 -5 -7 -10 -15 -10 -8 0 -15 4
-15 9 0 13 -64 33 -82 26 -9 -4 -19 -1 -23 5 -5 8 -11 7 -23 -2 -12 -10 -14
-10 -8 0 7 12 -4 20 -41 27 -10 2 -20 4 -23 5 -3 1 -8 2 -12 1 -5 0 -8 5 -8
12 0 9 -2 9 -8 -1 -7 -9 -19 -6 -56 13 -26 14 -51 23 -55 21 -4 -3 -20 1 -35
9 -15 8 -43 17 -64 21 -30 6 -33 8 -17 14 18 7 18 9 -8 19 -16 6 -33 9 -38 5
-5 -3 -9 2 -9 10 0 10 -9 16 -22 16 -19 0 -20 2 -8 11 12 8 9 10 -14 6 -18 -3
-36 1 -47 12 -11 9 -32 14 -48 13 -16 -2 -32 1 -36 7 -3 6 0 8 8 5 8 -3 18 -1
21 5 4 6 -11 15 -33 22 -36 11 -39 14 -31 35 7 18 6 22 -4 18 -8 -3 -17 -1
-21 5 -3 6 2 11 12 12 11 0 7 5 -12 11 -16 6 -38 20 -49 30 -11 10 -31 21 -43
24 -13 4 -20 10 -17 15 5 9 -10 13 -30 10 -5 -1 -3 5 4 14 7 8 11 16 9 18 -34
19 -52 26 -88 32 -29 5 -39 10 -30 15 10 7 7 13 -12 29 -13 11 -30 20 -37 21
-7 0 -10 5 -7 10 4 6 1 18 -6 26 -7 8 -11 35 -11 59 1 24 -2 47 -8 50 -5 3
-10 24 -10 46 0 29 -7 47 -25 65 -14 14 -25 36 -25 49 0 14 -4 25 -10 25 -5 0
-10 23 -10 50 0 28 -5 50 -10 50 -6 0 -9 22 -7 55 1 30 0 55 -3 55 -15 0 -17
173 -4 360 9 112 12 131 21 110 9 -20 10 -10 6 49 -4 52 -3 72 5 67 13 -8 17
6 33 119 11 77 14 85 20 55 l6 -35 2 32 c0 17 5 34 10 37 5 3 12 21 15 40 4
19 13 37 22 40 8 3 13 9 11 13 -9 15 12 139 30 178 9 22 18 47 18 55 0 9 8 14
19 12 10 -2 15 1 12 6 -3 5 6 15 19 22 19 10 22 17 15 30 -7 13 -5 22 5 30 8
7 13 16 10 20 -3 5 -1 11 4 15 6 3 8 12 4 20 -4 13 -279 15 -2194 15 l-2189 0
0 -3055z"/>
</g>
</svg>
